<?xml version="1.0" standalone="no"?>
<!DOCTYPE svg PUBLIC "-//W3C//DTD SVG 20010904//EN"
 "http://www.w3.org/TR/2001/REC-SVG-20010904/DTD/svg10.dtd">
<svg version="1.0" xmlns="http://www.w3.org/2000/svg"
 width="720.000000pt" height="720.000000pt" viewBox="0 0 720.000000 720.000000"
 preserveAspectRatio="xMidYMid meet">
<metadata>
Created by potrace 1.11, written by Peter Selinger 2001-2013
</metadata>
<g transform="translate(0.000000,720.000000) scale(0.100000,-0.100000)"
fill="#000000" stroke="none">
<path d="M2549 5998 c-1 -2 -2 -60 -3 -131 l-2 -128 145 -45 c273 -86 396
-125 440 -141 54 -19 117 -81 122 -119 3 -16 4 -915 4 -1999 -1 -1860 -2
-1972 -18 -2006 -23 -46 -79 -77 -217 -118 -137 -41 -241 -72 -370 -111 l-106
-32 1 -132 0 -131 1085 -3 1085 -2 -1 131 c0 104 -3 133 -15 139 -8 4 -146 47
-307 95 -318 96 -356 115 -379 187 -7 23 -10 667 -9 2015 l1 1982 21 28 c34
46 77 69 201 108 65 20 143 45 173 55 30 10 114 37 185 59 l130 40 -2 123 c0
68 -2 126 -2 131 -1 6 -2159 11 -2162 5z"/>
</g>
</svg>
